<mxfile host="app.diagrams.net" modified="2023-06-04T14:58:36.688Z" agent="Mozilla/5.0 (Windows NT 10.0; Win64; x64) AppleWebKit/537.36 (KHTML, like Gecko) Chrome/113.0.0.0 Safari/537.36" version="21.3.7" etag="VSUuITaQi8tpUuRjI7hG" type="github">
  <diagram name="Halaman-1" id="tSc-5g61EuUqDo2zIMbQ">
    <mxGraphModel>
      <root>
        <mxCell id="0" />
        <mxCell id="1" parent="0" />
      </root>
    </mxGraphModel>
  </diagram>
</mxfile>
